<svg xmlns="http://www.w3.org/2000/svg" width="18" height="19" viewBox="0 0 36 38">
  <defs>
    <style>
      .cls-1 {
        fill: #131313;
        fill-rule: evenodd;
      }
    </style>
  </defs>
  <path id="bell" class="cls-1" d="M3451.91,144.606a19.461,19.461,0,0,0-4.16-7.625v-7.52a13.758,13.758,0,0,0-27.51,0v7.207a19.563,19.563,0,0,0-4.16,8.043,2.916,2.916,0,0,0,.64,2.611,3.207,3.207,0,0,0,2.45,1.15h9.39v0.208a5.441,5.441,0,0,0,10.88,0v-0.208h9.38a3.2,3.2,0,0,0,2.56-1.254,3.114,3.114,0,0,0,.53-2.612h0Zm-15.67,4.179a2.232,2.232,0,0,1-2.24,2.193,2.3,2.3,0,0,1-2.24-2.193v-0.209h4.48v0.209h0Zm-0.43-3.343h-16.75a17.469,17.469,0,0,1,4.27-7.521v-8.356a10.562,10.562,0,0,1,21.12,0v8.669a18.84,18.84,0,0,1,4.26,7.208h-12.9Z" transform="translate(-3416 -116)"/>
</svg>
